<?xml version="1.0" encoding="UTF-8"?>
<svg id="Layer_2" data-name="Layer 2" xmlns="http://www.w3.org/2000/svg" viewBox="0 0 87.31 61.12">
  <defs>
    <style>
      .cls-1 {
        fill: #002870;
      }

      .cls-2 {
        fill: #ffb845;
      }
    </style>
  </defs>
  <g id="Layer_1-2" data-name="Layer 1">
    <g>
      <path class="cls-1" d="m7.03,35.85c-.34,0-.69-.08-1.01-.25-3.71-1.97-6.02-5.81-6.02-10.01,0-6.24,5.08-11.32,11.32-11.32.53,0,1.07.04,1.6.11,1.27.18,2.5.57,3.64,1.17,1.06.55,1.47,1.86.91,2.92-.55,1.06-1.86,1.47-2.92.91-.7-.37-1.46-.61-2.25-.72-.33-.05-.66-.07-.99-.07-3.86,0-7,3.14-7,7,0,2.6,1.43,4.97,3.72,6.19,1.05.56,1.46,1.87.9,2.92-.39.73-1.14,1.15-1.91,1.15Z"/>
      <path class="cls-1" d="m43.71,23.31c-.08,0-.16,0-.25-.01-1.19-.13-2.04-1.2-1.9-2.39.02-.16.03-.33.02-.49-.05-1.7-1.35-3.13-3.04-3.33-.17-.02-.34-.03-.51-.02-.06,0-.12,0-.18,0-1.3.1-2.42.92-2.91,2.13-.46,1.1-1.72,1.63-2.82,1.17-1.1-.46-1.63-1.72-1.17-2.82,1.12-2.72,3.64-4.55,6.56-4.79.13-.01.27-.02.4-.02.39-.01.77,0,1.15.05,3.79.45,6.73,3.68,6.84,7.5.01.37,0,.74-.05,1.1-.13,1.1-1.06,1.92-2.15,1.92Z"/>
      <path class="cls-1" d="m68.13,40.33c-.38,0-.77-.1-1.12-.31-1.02-.62-1.35-1.95-.73-2.97.11-.18.21-.37.29-.57.87-2.04.11-4.44-1.78-5.6-.19-.12-.39-.22-.59-.31-.07-.03-.14-.06-.22-.09-1.12-.41-1.7-1.65-1.29-2.77.41-1.12,1.65-1.7,2.77-1.29.15.05.29.11.43.17.4.17.79.37,1.16.6,3.69,2.27,5.19,6.99,3.49,10.98-.16.38-.36.76-.57,1.11-.41.67-1.12,1.04-1.85,1.04Z"/>
      <path class="cls-1" d="m14.5,48.37c-5.87,0-10.65-4.78-10.65-10.65,0-1.77.44-3.52,1.28-5.06.82-1.52,2.01-2.83,3.45-3.79.99-.66,2.33-.4,3,.59.66.99.4,2.33-.59,3-.85.57-1.56,1.35-2.05,2.25-.5.92-.76,1.96-.76,3.01,0,3.49,2.84,6.33,6.33,6.33,1.19,0,2.16.97,2.16,2.16s-.97,2.16-2.16,2.16Z"/>
      <path class="cls-1" d="m22.34,37.55c-.09,0-.19,0-.28-.02-2.65-.35-5.03-1.83-6.51-4.07-.72-1.09-1.19-2.29-1.4-3.57-.08-.49-.13-1-.13-1.51,0-3.6,2.28-6.92,5.54-8.09,2.87-1.02,4.24-1.81,4.82-3.77.14-.48.21-.98.21-1.48,0-1.58-.7-3.06-1.93-4.06-.94-.76-2.08-1.17-3.29-1.17-2.88,0-5.23,2.34-5.23,5.23,0,1.19-.97,2.16-2.16,2.16s-2.16-.97-2.16-2.16c0-5.27,4.28-9.55,9.55-9.55,2.19,0,4.32.76,6.02,2.14,2.24,1.82,3.53,4.52,3.53,7.41,0,.92-.13,1.82-.39,2.69-1.19,4.06-4.36,5.5-7.51,6.63-1.75.63-2.67,2.5-2.67,4.02,0,.27.02.54.07.8.11.69.36,1.32.75,1.9.79,1.2,2.05,1.99,3.46,2.17,1.18.15,2.02,1.24,1.86,2.42-.14,1.09-1.07,1.88-2.14,1.88Z"/>
      <path class="cls-1" d="m38.86,16.27c-.37,0-.75-.1-1.1-.3-1.03-.61-1.37-1.93-.76-2.96.52-.88.8-1.89.8-2.93,0-.69-.12-1.37-.36-2.01-.83-2.24-3-3.74-5.39-3.74-2.63,0-4.92,1.78-5.57,4.32-.3,1.16-1.47,1.86-2.63,1.56-1.16-.3-1.85-1.47-1.56-2.63,1.14-4.46,5.15-7.57,9.76-7.57,4.19,0,7.98,2.64,9.44,6.56.42,1.12.63,2.31.63,3.52,0,1.81-.48,3.58-1.4,5.13-.4.68-1.12,1.06-1.86,1.06Z"/>
      <path class="cls-1" d="m54.66,18.34c-.26,0-.53-.05-.79-.15-1.11-.44-1.66-1.69-1.23-2.8.31-.78.46-1.61.46-2.46,0-3.72-3.02-6.74-6.74-6.74-2.03,0-3.94.9-5.23,2.48-.75.92-2.12,1.06-3.04.31-.92-.76-1.06-2.12-.31-3.04,2.11-2.59,5.24-4.07,8.57-4.07,6.1,0,11.06,4.96,11.06,11.06,0,1.39-.25,2.75-.76,4.03-.33.85-1.15,1.37-2.01,1.37Z"/>
      <path class="cls-1" d="m49.98,26.86s-.09,0-.13,0c-1.19-.07-2.1-1.09-2.03-2.29.24-4.06,2.27-7.75,5.57-10.14,2.31-1.67,5.05-2.56,7.91-2.56,6.55,0,12.12,4.65,13.29,11.07.03.15.05.3.05.46,0,1.19-.97,2.16-2.16,2.16h-1.81l-.32-1.79c-.77-4.39-4.58-7.58-9.05-7.58-1.95,0-3.81.6-5.38,1.74-2.25,1.63-3.63,4.14-3.79,6.9-.07,1.15-1.02,2.03-2.16,2.03Z"/>
      <path class="cls-1" d="m77.82,34.77c-.23,0-.46-.04-.69-.11-1.13-.38-1.74-1.61-1.36-2.74.17-.5.25-1.01.25-1.54,0-2.66-2.16-4.82-4.82-4.82h-.07c-2.08.02-3.91,1.38-4.53,3.39-.35,1.14-1.56,1.78-2.7,1.43-1.14-.35-1.78-1.56-1.43-2.7,1.18-3.81,4.65-6.4,8.64-6.44h.09c5.04,0,9.14,4.1,9.14,9.14,0,1-.16,1.98-.48,2.92-.3.9-1.15,1.47-2.05,1.47Z"/>
      <path class="cls-1" d="m78.38,48.47l-18.59-.05c-1.19,0-2.16-.97-2.16-2.17,0-1.19.97-2.16,2.16-2.16h0l18.58.05c2.53,0,4.6-2.07,4.6-4.61s-2.07-4.61-4.61-4.61c-.53,0-1.05.09-1.55.27-1.13.4-2.36-.19-2.76-1.31-.4-1.12.19-2.36,1.31-2.76.96-.34,1.97-.52,3-.52,4.92,0,8.93,4.01,8.93,8.93s-4.01,8.93-8.93,8.93Z"/>
      <path class="cls-1" d="m26.76,48.4h0l-12.25-.03c-1.19,0-2.16-.97-2.16-2.17,0-1.19.97-2.16,2.16-2.16h0l12.25.03c1.19,0,2.16.97,2.16,2.17,0,1.19-.97,2.16-2.16,2.16Z"/>
      <path class="cls-2" d="m40.17,59.32c-.25,0-.5-.05-.73-.16-.78-.35-1.21-1.19-1.03-2.03l1.94-9.09h-3.6c-.56,0-1.1-.26-1.44-.71s-.46-1.03-.31-1.58l3.56-12.93c.22-.78.93-1.33,1.74-1.33h8.77c.61,0,1.18.31,1.51.82.33.51.39,1.15.15,1.71l-3.08,7.11h3.1c.68,0,1.3.38,1.61.99.31.61.25,1.33-.15,1.88l-10.58,14.57c-.35.48-.9.75-1.46.75Z"/>
      <path class="cls-1" d="m49.07,33.3h0m0,0l-4.17,9.63h5.85l-10.58,14.57,2.41-11.27h-5.84l3.56-12.93h8.77m0-3.62h-8.78c-1.63,0-3.05,1.09-3.49,2.66l-3.56,12.93c-.3,1.09-.07,2.25.61,3.15.68.9,1.75,1.42,2.88,1.42h1.37l-1.47,6.9c-.36,1.67.5,3.36,2.06,4.06.48.21.98.31,1.47.31,1.13,0,2.23-.53,2.93-1.49l10.58-14.57c.8-1.1.91-2.55.3-3.77-.62-1.21-1.86-1.97-3.22-1.97h-.34l1.93-4.45c.23-.47.36-1,.36-1.56,0-2-1.62-3.62-3.61-3.62h0Zm0,7.23h0,0Z"/>
    </g>
  </g>
</svg>